<svg width="537" height="175" viewBox="0 0 537 175" fill="none" xmlns="http://www.w3.org/2000/svg">
<path d="M268 30.9901V51.2483V144.01L531 168V7L268 30.9901Z" stroke="#FFCC00" stroke-width="11"/>
<rect x="190" y="46" width="102" height="86" fill="white"/>
<path d="M1.88672 113V107.104L7.10889 106.093V70.8857L1.88672 69.875V63.9453H7.10889H23.6851C29.4575 63.9453 33.9609 65.0684 37.1953 67.3145C40.4297 69.5605 42.0469 72.9185 42.0469 77.3882C42.0469 79.6567 41.4404 81.6895 40.2275 83.4863C39.0371 85.2607 37.2964 86.5972 35.0054 87.4956C36.9595 87.9224 38.5879 88.6748 39.8906 89.7529C41.2158 90.8311 42.2041 92.145 42.8555 93.6948C43.5068 95.2222 43.8325 96.8955 43.8325 98.7148C43.8325 103.409 42.2827 106.969 39.1831 109.395C36.0835 111.798 31.6924 113 26.0098 113H1.88672ZM16.9468 105.453H26.0098C28.6152 105.453 30.603 104.892 31.9731 103.769C33.3433 102.623 34.0283 100.938 34.0283 98.7148C34.0283 97.0977 33.77 95.7388 33.2534 94.6382C32.7368 93.5376 31.9395 92.7065 30.8613 92.145C29.8057 91.5835 28.4355 91.3027 26.751 91.3027H16.9468V105.453ZM16.9468 84.4971H24.022C26.6499 84.4971 28.6714 83.958 30.0864 82.8799C31.5015 81.8018 32.209 80.2295 32.209 78.1631C32.209 75.8945 31.4902 74.2212 30.0527 73.1431C28.6377 72.0649 26.5151 71.5259 23.6851 71.5259H16.9468V84.4971ZM71.4258 113.708C67.54 113.708 64.1147 113.034 61.1499 111.686C58.2075 110.338 55.9165 108.384 54.2769 105.824C52.6372 103.263 51.8174 100.152 51.8174 96.4912V70.8857L46.5952 69.875V63.9453H66.9111V69.875L61.6553 70.8857V96.4912C61.6553 98.6475 62.0483 100.444 62.8345 101.882C63.6206 103.319 64.7437 104.397 66.2036 105.116C67.6636 105.812 69.4043 106.161 71.4258 106.161C73.4922 106.161 75.2554 105.812 76.7153 105.116C78.1978 104.397 79.332 103.319 80.1182 101.882C80.9043 100.444 81.2974 98.6475 81.2974 96.4912V70.8857L76.0752 69.875V63.9453H96.3911V69.875L91.1353 70.8857V96.4912C91.1353 100.152 90.3042 103.274 88.6421 105.857C87.0024 108.418 84.7002 110.372 81.7354 111.72C78.793 113.045 75.3564 113.708 71.4258 113.708ZM99.5918 113V107.104L104.814 106.093V70.8857L99.5918 69.875V63.9453H119.874V69.875L114.652 70.8857V106.093L119.874 107.104V113H99.5918ZM123.647 113V107.104L128.87 106.093V70.8857L123.647 69.875V63.9453H128.87H138.708H144.637V69.875L138.708 70.8857V105.453H152.555L153.026 98.2769H160.54V113H123.647ZM168.423 113V107.104L173.679 106.093V71.5259H164.751L164.212 77.3882H156.766V63.9453H200.531V77.3882H193.052L192.513 71.5259H183.517V106.093L188.807 107.104V113H168.423ZM203.968 113V107.104L209.19 106.093V70.8857L203.968 69.875V63.9453H209.19H225.766C231.539 63.9453 236.042 65.0684 239.276 67.3145C242.511 69.5605 244.128 72.9185 244.128 77.3882C244.128 79.6567 243.521 81.6895 242.309 83.4863C241.118 85.2607 239.377 86.5972 237.086 87.4956C239.041 87.9224 240.669 88.6748 241.972 89.7529C243.297 90.8311 244.285 92.145 244.937 93.6948C245.588 95.2222 245.914 96.8955 245.914 98.7148C245.914 103.409 244.364 106.969 241.264 109.395C238.165 111.798 233.773 113 228.091 113H203.968ZM219.028 105.453H228.091C230.696 105.453 232.684 104.892 234.054 103.769C235.424 102.623 236.109 100.938 236.109 98.7148C236.109 97.0977 235.851 95.7388 235.334 94.6382C234.818 93.5376 234.021 92.7065 232.942 92.145C231.887 91.5835 230.517 91.3027 228.832 91.3027H219.028V105.453ZM219.028 84.4971H226.103C228.731 84.4971 230.752 83.958 232.167 82.8799C233.583 81.8018 234.29 80.2295 234.29 78.1631C234.29 75.8945 233.571 74.2212 232.134 73.1431C230.719 72.0649 228.596 71.5259 225.766 71.5259H219.028V84.4971ZM260.704 113V107.104L265.96 106.093V96.188L251.405 70.5488L246.688 69.875V63.9453H266.263V69.875L262.254 70.4478L270.407 86.1143L271.148 87.6978L271.351 87.6641L272.092 86.1816L281.155 70.4478L275.764 69.875V63.9453H294.968V69.875L290.117 70.5488L275.764 95.4131V106.093L281.02 107.104V113H260.704Z" fill="#626262"/>
<path d="M298.169 113V107.104L303.458 105.992V71.0205L298.169 69.875V63.9453H303.458H319.698C324.078 63.9453 327.941 64.9785 331.288 67.0449C334.634 69.0889 337.24 71.9302 339.104 75.5688C340.991 79.1851 341.934 83.3403 341.934 88.0347V88.9443C341.934 93.5938 341.002 97.7378 339.138 101.376C337.296 104.993 334.713 107.834 331.389 109.9C328.064 111.967 324.212 113 319.833 113H298.169ZM313.296 105.487H319.327C322.045 105.487 324.347 104.779 326.234 103.364C328.121 101.927 329.558 99.9614 330.546 97.4683C331.557 94.9751 332.062 92.1338 332.062 88.9443V88.001C332.062 84.7666 331.557 81.9141 330.546 79.4434C329.558 76.9502 328.121 75.0073 326.234 73.6147C324.347 72.1997 322.045 71.4922 319.327 71.4922H313.296V105.487ZM346.213 113V107.104L351.435 106.093V70.8857L346.213 69.875V63.9453H369.46C373.233 63.9453 376.468 64.5293 379.163 65.6973C381.858 66.8652 383.925 68.5386 385.362 70.7173C386.822 72.896 387.552 75.5127 387.552 78.5674C387.552 81.4424 386.833 84.0142 385.396 86.2827C383.958 88.5513 381.959 90.3369 379.399 91.6396C376.838 92.9424 373.885 93.605 370.538 93.6274H361.273V106.093L366.529 107.104V113H346.213ZM377.782 113L369.527 91.8081L378.388 89.6182L385.531 106.127L389.708 107.104V113H377.782ZM361.273 86.0469H369.292C372.122 86.0469 374.233 85.4517 375.625 84.2612C377.041 83.0483 377.748 81.2964 377.748 79.0054C377.748 76.7368 377.052 74.9287 375.659 73.5811C374.267 72.2109 372.2 71.5259 369.46 71.5259H361.273V86.0469ZM393.65 113V107.104L398.873 106.093V70.8857L393.65 69.875V63.9453H431.722V77.186H424.175L423.737 71.5259H408.71V83.8569H425.32V91.4375H408.71V105.453H424.545L424.983 99.5908H432.463V113H393.65ZM453.385 113L441.998 70.3804L436.978 69.875V63.9453H456.721V69.875L451.431 70.6499L457.192 94.5034L458.237 98.8833H458.439L459.686 94.5034L469.389 63.9453H476.632L486.706 95.3457L487.885 99.2202H488.087L489.098 95.3457L495.062 70.6499L489.469 69.875V63.9453H508.841V69.875L504.158 70.3804L492.636 113H483.741L474.442 84.3286L473.263 80.2856H473.061L471.747 84.4634L462.347 113H453.385Z" fill="#0B0B0B"/>
</svg>
